<?xml version="1.0" encoding="UTF-8" standalone="no"?>
<!DOCTYPE svg PUBLIC "-//W3C//DTD SVG 1.1//EN" "http://www.w3.org/Graphics/SVG/1.1/DTD/svg11.dtd">
<svg width="100%" height="100%" viewBox="0 0 1920 1920" version="1.1" xmlns="http://www.w3.org/2000/svg" xmlns:xlink="http://www.w3.org/1999/xlink" xml:space="preserve" xmlns:serif="http://www.serif.com/" style="fill-rule:evenodd;clip-rule:evenodd;stroke-linejoin:round;stroke-miterlimit:2;">
    <g transform="matrix(8.191432,0,0,7.857567,303.974797,46.878277)">
        <path d="M157.697,83.574C158.088,86.978 158.079,113.352 157.535,114.52C157.206,115.225 150.098,118.074 149.433,118.34C142.488,121.124 142.052,120.458 140.256,122.858C138.254,122.815 138.292,123.167 102.691,136.916C100.723,137.677 98.708,139.039 18.581,170.697C5.132,176.01 5.182,176.355 2.138,176.405C1.992,167.139 2.018,167.224 2.041,145.622C6.634,143.88 54.287,125.81 59.18,123.133C59.545,122.933 59.445,122.255 59.81,122.055C61.261,122.008 61.211,122.103 62.533,121.584C65.406,120.457 97.678,107.798 98.382,107.354C98.742,107.128 98.391,106.36 98.751,106.133C102.108,106.386 122.891,97.848 127.699,95.067C130.535,94.587 130.444,94.315 157.697,83.574Z" style="fill:rgb(0,204,153);"/>
        <path d="M157.744,137.583C158.684,148.56 157.952,165.151 157.846,167.546C157.75,169.743 151.392,171.64 148.602,172.752C5.405,229.83 5.552,230.446 2.128,230.407C1.991,220.906 2.017,220.997 2.042,199.624C9.018,197.499 114.843,154.365 126.378,150.347C127.582,149.928 127.509,149.313 127.666,149.169C128.222,149.135 128.466,149.826 157.744,137.583Z" style="fill:rgb(0,204,153);"/>
        <path d="M118.512,2.01C121.637,3.178 156.458,16.19 157.197,17.582C157.895,18.895 156.45,18.385 121.481,32.454C99.99,41.1 99.657,40.156 86.046,46.894C81.002,48.237 57.124,58.712 52.938,59.597C52.315,49.297 52.703,32.834 52.758,30.508C52.831,27.425 54.322,27.99 106.625,6.816C113.653,3.971 113.847,4.577 118.512,2.01Z" style="fill:rgb(0,204,153);"/>
        <path d="M86.046,46.894C98.467,52.269 132.812,65.644 154.533,74.42C158.694,76.101 158.287,77.834 157.697,83.574C130.444,94.315 130.535,94.587 127.699,95.067C122.014,93.048 122.131,92.845 57.613,67.217C52.822,65.314 52.728,64.662 52.938,59.597C57.124,58.712 81.002,48.237 86.046,46.894Z" style="fill:rgb(12,12,12);"/>
        <path d="M2.023,67.405C9.689,70.586 69.93,95.535 98.751,106.133C98.391,106.36 98.742,107.128 98.382,107.354C97.678,107.798 65.406,120.457 62.533,121.584C61.211,122.103 61.261,122.008 59.81,122.055C39.316,114.246 5.327,99.68 1.973,99.618C1.971,97.208 1.938,69.722 1.971,69.489C2.046,68.943 1.957,67.674 2.023,67.405Z" style="fill:rgb(12,12,12);"/>
        <path d="M140.256,122.858C146.235,125.154 153.365,128.038 154.501,128.498C159.583,130.553 157.841,132.066 157.744,137.583C128.466,149.826 128.222,149.135 127.666,149.169C103.318,139.723 102.674,138.714 100.545,137.932C100.816,137.566 100.723,137.677 102.691,136.916C138.292,123.167 138.254,122.815 140.256,122.858Z" style="fill:rgb(12,11,11);"/>
    </g>
</svg>
